<svg width="19" height="25" viewBox="0 0 19 25" fill="none" xmlns="http://www.w3.org/2000/svg">
<path d="M9.8 1.25C7.5324 1.25 5.35767 2.1508 3.75424 3.75424C2.1508 5.35767 1.25 7.5324 1.25 9.8V10.4231C1.59615 15.1077 5.48462 18.875 9.8 23.75C14.3058 18.6615 18.35 14.8077 18.35 9.8C18.35 7.5324 17.4492 5.35767 15.8458 3.75424C14.2423 2.1508 12.0676 1.25 9.8 1.25ZM9.8 5.69231C10.6138 5.69231 11.4093 5.93371 12.0859 6.38595C12.7625 6.8382 13.2897 7.48098 13.6009 8.23295C13.9121 8.98492 13.9932 9.8123 13.834 10.6104C13.6748 11.4085 13.2825 12.1414 12.7066 12.7165C12.1308 13.2915 11.3973 13.6828 10.599 13.8409C9.80064 13.999 8.97338 13.9167 8.22184 13.6045C7.47031 13.2922 6.82827 12.7641 6.37698 12.0869C5.92568 11.4097 5.6854 10.6138 5.68654 9.8C5.68807 8.71004 6.12212 7.66525 6.89338 6.89507C7.66464 6.1249 8.71004 5.69231 9.8 5.69231Z" fill="white" stroke="#6F6F6F" stroke-linecap="round" stroke-linejoin="round"/>
</svg>
